<?xml version="1.0" encoding="utf-8"?>
<!-- Generator: Adobe Illustrator 21.1.0, SVG Export Plug-In . SVG Version: 6.00 Build 0)  -->
<svg version="1.1" id="Layer_1" xmlns="http://www.w3.org/2000/svg" xmlns:xlink="http://www.w3.org/1999/xlink" x="0px" y="0px"
	 viewBox="0 0 95.7 95.8" style="enable-background:new 0 0 95.7 95.8;" xml:space="preserve">
<style type="text/css">
	.st0{fill:#4F4F4F;}
	.st1{fill:#30C0D8;}
	.st2{fill:#FFFFFF;}
</style>
<g>
	<g>
		<g>
			<g>
				<g>
					<g>
						<g>
							<path class="st0" d="M47.9,95.8c-9.4,0-18.5-2.7-26.4-8L5,95.5L10.7,78C3.8,69.5,0,58.8,0,47.9C0,21.5,21.5,0,47.9,0v4
								C23.7,4,4,23.7,4,47.9c0,10.4,3.7,20.5,10.4,28.4l0.7,0.9L11.6,88l10.2-4.8l0.9,0.7c7.4,5.2,16.1,7.9,25.1,7.9
								c24.2,0,43.9-19.7,43.9-43.9h4C95.7,74.3,74.3,95.8,47.9,95.8z"/>
						</g>
					</g>
				</g>
			</g>
		</g>
		<g>
			<g>
				<path class="st0" d="M95.7,47.9h-4c0-0.6,0-1.3,0-1.9l4-0.2C95.7,46.5,95.7,47.2,95.7,47.9z"/>
			</g>
			<g>
				<path class="st0" d="M91.4,42.1c-0.2-1.3-0.4-2.5-0.7-3.8l3.9-0.9c0.3,1.4,0.5,2.7,0.7,4.1L91.4,42.1z M89.7,34.7
					c-0.4-1.2-0.8-2.4-1.3-3.6l3.7-1.5c0.5,1.3,1,2.6,1.4,3.9L89.7,34.7z M86.8,27.6c-0.6-1.1-1.2-2.2-1.9-3.3l3.4-2.2
					c0.7,1.2,1.4,2.4,2.1,3.6L86.8,27.6z M82.7,21.2c-0.8-1-1.6-2-2.5-2.9l2.9-2.7c0.9,1,1.8,2.1,2.7,3.2L82.7,21.2z M77.5,15.5
					c-0.9-0.9-1.9-1.7-2.9-2.5L77,9.9c1.1,0.8,2.2,1.7,3.2,2.7L77.5,15.5z M71.5,10.9c-1.1-0.7-2.2-1.3-3.3-1.9L70,5.4
					c1.2,0.6,2.4,1.3,3.6,2.1L71.5,10.9z M64.7,7.3c-1.2-0.5-2.4-0.9-3.6-1.3l1.2-3.8c1.3,0.4,2.6,0.9,3.9,1.4L64.7,7.3z M57.4,5
					c-1.2-0.3-2.5-0.5-3.8-0.7l0.5-4c1.4,0.2,2.8,0.4,4.1,0.7L57.4,5z"/>
			</g>
			<g>
				<path class="st0" d="M49.8,4c-0.6,0-1.3,0-1.9,0V0c0.7,0,1.4,0,2.1,0L49.8,4z"/>
			</g>
		</g>
	</g>
	<circle class="st1" cx="47" cy="47.4" r="36.4"/>
	<g>
		<g>
			<rect x="40.7" y="28.4" class="st2" width="11.9" height="37.2"/>
			<rect x="28" y="41.1" class="st2" width="37.2" height="11.9"/>
		</g>
	</g>
</g>
</svg>
