<?xml version="1.0" encoding="utf-8"?>
<!-- Generator: Adobe Illustrator 22.0.1, SVG Export Plug-In . SVG Version: 6.00 Build 0)  -->
<svg version="1.1" id="Layer_1" xmlns="http://www.w3.org/2000/svg" xmlns:xlink="http://www.w3.org/1999/xlink" x="0px" y="0px"
	 viewBox="0 0 10.3 10.3" style="enable-background:new 0 0 10.3 10.3;" xml:space="preserve">
<g>
	<path fill="#4f4f4f" d="M9.6,2.6c0.5,0.8,0.7,1.6,0.7,2.6s-0.2,1.8-0.7,2.6C9.1,8.5,8.5,9.1,7.7,9.6c-0.8,0.5-1.6,0.7-2.6,0.7
		c-0.9,0-1.8-0.2-2.6-0.7C1.8,9.1,1.1,8.5,0.7,7.7C0.2,6.9,0,6.1,0,5.1s0.2-1.8,0.7-2.6c0.5-0.8,1.1-1.4,1.9-1.9
		C3.3,0.2,4.2,0,5.1,0c0.9,0,1.8,0.2,2.6,0.7C8.5,1.1,9.1,1.8,9.6,2.6z M7.7,3.9c0-0.4-0.1-0.8-0.4-1.1C7.1,2.4,6.8,2.2,6.4,2
		C6,1.8,5.7,1.7,5.3,1.7c-1.1,0-1.9,0.5-2.5,1.4c-0.1,0.1,0,0.2,0.1,0.3l0.9,0.7c0,0,0.1,0,0.1,0c0.1,0,0.1,0,0.2-0.1
		c0.2-0.3,0.4-0.5,0.6-0.6c0.2-0.1,0.3-0.2,0.6-0.2c0.2,0,0.4,0.1,0.6,0.2C5.9,3.6,6,3.7,6,3.8C6,4,6,4.1,5.9,4.3
		C5.8,4.4,5.6,4.5,5.4,4.6C5.1,4.7,4.9,4.9,4.6,5.1S4.3,5.7,4.3,6v0.2c0,0.1,0,0.1,0.1,0.2c0,0,0.1,0.1,0.2,0.1h1.3
		c0.1,0,0.1,0,0.2-0.1C6,6.3,6,6.3,6,6.2C6,6.1,6,6,6.1,5.9c0.1-0.1,0.2-0.2,0.4-0.3c0.1-0.1,0.3-0.1,0.3-0.2c0.1,0,0.2-0.1,0.3-0.2
		s0.2-0.2,0.3-0.3c0.1-0.1,0.1-0.2,0.2-0.4C7.7,4.2,7.7,4.1,7.7,3.9z M6,8.4V7.1C6,7,6,7,5.9,6.9c0,0-0.1-0.1-0.2-0.1H4.5
		c-0.1,0-0.1,0-0.2,0.1c0,0-0.1,0.1-0.1,0.2v1.3c0,0.1,0,0.1,0.1,0.2c0,0,0.1,0.1,0.2,0.1h1.3c0.1,0,0.1,0,0.2-0.1
		C6,8.5,6,8.4,6,8.4z"/>
</g>
</svg>
