<?xml version="1.0" encoding="utf-8"?>
<!-- Generator: Adobe Illustrator 22.0.1, SVG Export Plug-In . SVG Version: 6.00 Build 0)  -->
<svg version="1.1" id="Layer_1" xmlns="http://www.w3.org/2000/svg" xmlns:xlink="http://www.w3.org/1999/xlink" x="0px" y="0px"
	 viewBox="0 0 10 10" style="enable-background:new 0 0 10 10;" xml:space="preserve">
<style type="text/css">
	.st0{fill:#F15835;}
	.st1{fill:#FFFFFF;}
</style>
<circle class="st0" cx="5" cy="5" r="5"/>
<path class="st1" d="M7.5,6.6c0-0.1,0-0.1-0.1-0.1H6.3c-0.1,0-0.1,0-0.1,0.1c0,0.3,0.2,0.6,0.5,0.6c0,0.5-0.5,0.9-1,0.9
	c-0.5,0-1-0.4-1-1V5.6c0.9-0.1,1.6-0.8,1.6-1.7V3C6.7,2.9,7,2.6,7,2.3C7,2,6.7,1.7,6.3,1.7C6,1.7,5.7,2,5.7,2.3
	c0,0.3,0.2,0.6,0.5,0.6v1c0,0.8-0.7,1.5-1.5,1.5c-0.8,0-1.5-0.7-1.5-1.5V3c0.3-0.1,0.5-0.3,0.5-0.6c0-0.4-0.3-0.6-0.6-0.6
	C2.8,1.7,2.5,2,2.5,2.3C2.5,2.6,2.7,2.9,3,3v1c0,0.9,0.7,1.6,1.6,1.7v1.5c0,0.6,0.5,1.2,1.2,1.2c0.6,0,1.1-0.5,1.2-1.1
	C7.3,7.2,7.5,6.9,7.5,6.6z M5.9,2.3c0-0.2,0.2-0.4,0.4-0.4c0.2,0,0.4,0.2,0.4,0.4c0,0.2-0.2,0.4-0.4,0.4C6.1,2.8,5.9,2.6,5.9,2.3z
	 M2.7,2.3c0-0.2,0.2-0.4,0.4-0.4c0.2,0,0.4,0.2,0.4,0.4c0,0.2-0.2,0.4-0.4,0.4C2.9,2.8,2.7,2.6,2.7,2.3z M6.9,7
	C6.7,7,6.5,6.9,6.5,6.7h0.8C7.2,6.9,7.1,7,6.9,7z"/>
</svg>
