<?xml version="1.0" encoding="utf-8"?>
<!-- Generator: Adobe Illustrator 21.1.0, SVG Export Plug-In . SVG Version: 6.00 Build 0)  -->
<svg version="1.1" id="Layer_1" xmlns="http://www.w3.org/2000/svg" xmlns:xlink="http://www.w3.org/1999/xlink" x="0px" y="0px"
	 viewBox="0 0 95.7 95.8" style="enable-background:new 0 0 95.7 95.8;" xml:space="preserve">
<style type="text/css">
	.st0{fill:#FFFFFF;}
	.st1{fill:#4F4F4F;}
	.st2{fill:#30C0D8;}
</style>
<g>
	<g>
		<path class="st0" d="M82.4,81.2c0,2.2-1.8,4-4,4H5c-2.2,0-4-1.8-4-4V14.6c0-2.2,1.8-4,4-4h73.3c2.2,0,4,1.8,4,4V81.2z"/>
		<path class="st1" d="M78.4,87.2H5c-3.3,0-6-2.7-6-6V14.6c0-3.3,2.7-6,6-6h73.3c3.3,0,6,2.7,6,6v66.7
			C84.4,84.5,81.7,87.2,78.4,87.2z M5,12.6c-1.1,0-2,0.9-2,2v66.7c0,1.1,0.9,2,2,2h73.3c1.1,0,2-0.9,2-2V14.6c0-1.1-0.9-2-2-2H5z"/>
	</g>
	<rect x="7" y="16.6" class="st2" width="69.3" height="62.7"/>
	<g>
		<polygon class="st0" points="64.5,41.7 58.5,31.3 47.7,37.5 47.7,25.1 35.7,25.1 35.7,37.5 24.9,31.3 18.9,41.7 29.7,47.9 
			18.9,54.1 24.9,64.5 35.7,58.3 35.7,70.7 47.7,70.7 47.7,58.3 58.5,64.5 64.5,54.1 53.7,47.9 		"/>
		<path class="st1" d="M49.7,72.7h-16v-11l-9.5,5.5l-8-13.9l9.5-5.5l-9.5-5.5l8-13.9l9.5,5.5v-11h16v11l9.5-5.5l8,13.9l-9.5,5.5
			l9.5,5.5l-8,13.9l-9.5-5.5V72.7z M37.7,68.7h8V54.8l12,7l4-6.9l-12-7l12-7l-4-6.9l-12,7V27.1h-8V41l-12-7l-4,6.9l12,7l-12,7l4,6.9
			l12-7V68.7z"/>
	</g>
	<g>
		<rect x="94.1" y="-2.1" class="st1" width="4" height="100"/>
	</g>
	<g>
		<g>
			<rect x="84.1" y="23.9" class="st1" width="13.3" height="4"/>
		</g>
		<g>
			<rect x="84.1" y="67.9" class="st1" width="13.3" height="4"/>
		</g>
	</g>
</g>
</svg>
