<?xml version="1.0" encoding="utf-8"?>
<!-- Generator: Adobe Illustrator 21.1.0, SVG Export Plug-In . SVG Version: 6.00 Build 0)  -->
<svg version="1.1" id="Layer_1" xmlns="http://www.w3.org/2000/svg" xmlns:xlink="http://www.w3.org/1999/xlink" x="0px" y="0px"
	 viewBox="0 0 114.5 94.6" style="enable-background:new 0 0 114.5 94.6;" xml:space="preserve">
<style type="text/css">
	.st0{fill:#FFFFFF;}
	.st1{fill:#4F4F4F;}
	.st2{fill:#30C0D8;}
	.st3{fill:#B7BEC0;}
</style>
<g>
	<g>
		<g>
			<g>
				<line class="st0" x1="96.8" y1="65.1" x2="96.8" y2="85"/>
				<rect x="94.8" y="65.1" class="st1" width="4" height="19.9"/>
			</g>
			<g>
				<path class="st0" d="M86.2,29.9H94c1.6,0,2.8,1.3,2.8,2.8v2.7"/>
				<path class="st1" d="M98.8,35.4h-4v-2.7c0-0.5-0.4-0.8-0.8-0.8h-7.8v-4H94c2.7,0,4.8,2.2,4.8,4.8V35.4z"/>
			</g>
			<g>
				<line class="st0" x1="62.4" y1="29.9" x2="73.9" y2="29.9"/>
				<rect x="62.4" y="27.9" class="st1" width="11.4" height="4"/>
			</g>
			<g>
				<path class="st0" d="M14.3,85V32.7c0-1.6,1.3-2.8,2.8-2.8H56"/>
				<path class="st1" d="M16.3,85h-4V32.7c0-2.7,2.2-4.8,4.8-4.8H56v4H17.1c-0.5,0-0.8,0.4-0.8,0.8V85z"/>
			</g>
			<rect x="20.3" y="35.9" class="st2" width="70.5" height="43.1"/>
			<g>
				<path class="st0" d="M2,84.8v5.1c0,0,3.7,2.8,6.4,2.8h34.1h26.1h34.1c2.7,0,6.4-2.8,6.4-2.8v-5.1H2z"/>
				<path class="st1" d="M102.7,94.6H8.4c-3.3,0-7.2-2.8-7.6-3.2L0,90.8v-8.1h111.1v8.1l-0.8,0.6C109.9,91.7,106,94.6,102.7,94.6z
					 M4,88.8c1.3,0.9,3.2,1.8,4.4,1.8h94.3c1.2,0,3.2-1,4.4-1.8v-2H4V88.8z"/>
			</g>
		</g>
	</g>
	<g>
		<g>
			<path class="st1" d="M86.4,65.9h-1.8c-6.9,0-12.5-5.6-12.5-12.5V27.6h4v25.8c0,4.7,3.8,8.5,8.5,8.5h1.8c4.7,0,8.5-3.8,8.5-8.5
				V41.1h4v12.3C98.9,60.3,93.3,65.9,86.4,65.9z"/>
		</g>
		<g>
			<path class="st1" d="M59,47.7h-4V22.5c0-5.4,4.4-9.8,9.8-9.8h1.3c5.4,0,9.8,4.4,9.8,9.8v9.4h-4v-9.4c0-3.2-2.6-5.8-5.8-5.8h-1.3
				c-3.2,0-5.8,2.6-5.8,5.8V47.7z"/>
		</g>
		<g>
			<circle class="st0" cx="56.8" cy="56.3" r="8.8"/>
			<path class="st1" d="M56.8,67.1c-5.9,0-10.8-4.8-10.8-10.8c0-5.9,4.8-10.8,10.8-10.8c5.9,0,10.8,4.8,10.8,10.8
				C67.6,62.3,62.8,67.1,56.8,67.1z M56.8,49.5c-3.7,0-6.8,3-6.8,6.8c0,3.7,3,6.8,6.8,6.8c3.7,0,6.8-3,6.8-6.8
				C63.6,52.6,60.6,49.5,56.8,49.5z"/>
		</g>
		<circle class="st3" cx="56.8" cy="56.3" r="4.2"/>
		<g>
			<g>
				<path class="st2" d="M114.5,21.6h-4V9.3c0-2.7-2.2-4.8-4.8-4.8v-4c4.9,0,8.8,4,8.8,8.8V21.6z"/>
			</g>
			<g>
				<g>
					<path class="st2" d="M82.8,21.7h-4V9.4c0-4.9,4-8.8,8.8-8.8v4c-2.7,0-4.8,2.2-4.8,4.8V21.7z"/>
				</g>
				<g>
					<path class="st1" d="M85.9,5.5l-2-4.6c1.2-0.5,2.4-0.8,3.7-0.8v5C87,5.1,86.5,5.2,85.9,5.5z"/>
				</g>
			</g>
			<g>
				<path class="st1" d="M100.2,43.7h-7c-7.9,0-14.3-6.4-14.3-14.3v-7.8h4v7.8c0,5.7,4.6,10.3,10.3,10.3h7c5.7,0,10.3-4.6,10.3-10.3
					v-7.8h4v7.8C114.5,37.3,108.1,43.7,100.2,43.7z"/>
			</g>
			<g>
				<path class="st1" d="M107.5,5.4c-0.6-0.2-1.1-0.4-1.8-0.4V0c1.3,0,2.6,0.3,3.8,0.8L107.5,5.4z"/>
			</g>
		</g>
	</g>
	<g>
		<rect x="31.2" y="40.3" class="st0" width="5.2" height="16.4"/>
		<rect x="25.6" y="45.9" class="st0" width="16.4" height="5.2"/>
	</g>
</g>
</svg>
